<?xml version="1.0" encoding="UTF-8"?>
<svg xmlns="http://www.w3.org/2000/svg" viewBox="0 0 454.00 421.05">
  <g transform="translate(-733.00,-326.80)">
    <path d="M1070.12,584.38c-3.78-11.51-8.94-21.64-15.49-30.38-6.55-8.73-14.2-16.09-22.94-22.04-8.74-5.96-18.08-10.52-28-13.7,12.71-6.75,22.94-16.58,30.68-29.49,7.75-12.9,11.62-29.49,11.62-49.75,0-16.28-2.59-31.07-7.75-44.38-5.17-13.31-12.51-24.92-22.04-34.86-9.53-9.92-21.15-17.58-34.85-22.94-13.7-5.36-29.1-8.04-46.17-8.04h-200.18v348.52h74.45v68.53h142.41c19.06,0,36.24-2.98,51.53-8.94,15.29-5.96,28.3-14.39,39.02-25.32,10.72-10.92,18.96-23.83,24.72-38.73,5.76-14.9,8.64-31.28,8.64-49.15,0-14.69-1.89-27.8-5.66-39.32ZM809.46,397.31h116.18c13.9,0,25.02,4.17,33.36,12.51,8.34,8.34,12.51,19.66,12.51,33.96s-4.17,25.02-12.51,33.36c-8.34,8.34-19.47,12.51-33.36,12.51h-116.18v-92.34ZM985.22,661.24c-10.72,10.72-25.02,16.09-42.9,16.09h-132.86v-119.15h132.86c17.87,0,32.17,5.46,42.9,16.38,10.72,10.93,16.09,25.52,16.09,43.79s-5.36,32.17-16.09,42.9Z"/>
    <rect x="1113.51" y="673.45" width="71.49" height="68.51"/>
  </g>
</svg>
