<?xml version="1.0" standalone="no"?>
<!DOCTYPE svg PUBLIC "-//W3C//DTD SVG 20010904//EN"
 "http://www.w3.org/TR/2001/REC-SVG-20010904/DTD/svg10.dtd">
<svg version="1.0" xmlns="http://www.w3.org/2000/svg"
 width="700.000000pt" height="700.000000pt" viewBox="0 0 700.000000 700.000000"
 preserveAspectRatio="xMidYMid meet">
<metadata>
Created by potrace 1.14, written by Peter Selinger 2001-2017
</metadata>
<g transform="translate(0.000000,700.000000) scale(0.100000,-0.100000)"
fill="#000000" stroke="none">
<path d="M2862 5778 c-315 -315 -575 -583 -578 -595 -10 -38 5 -72 39 -93 17
-11 37 -20 42 -20 6 0 53 25 105 57 631 376 1389 378 2009 4 46 -28 96 -51
111 -51 38 0 80 44 80 84 0 27 -62 93 -578 608 -569 570 -578 578 -617 578
-39 0 -48 -8 -613 -572z"/>
<path d="M3300 5109 c-196 -23 -357 -71 -545 -163 -331 -163 -584 -421 -745
-758 -298 -627 -163 -1378 336 -1859 233 -225 518 -371 849 -436 139 -27 435
-25 580 5 212 42 420 125 580 231 43 28 79 51 81 51 1 0 224 -241 495 -536
379 -414 501 -540 533 -555 61 -28 148 -25 216 7 184 86 270 278 184 410 -14
22 -261 264 -548 538 l-522 499 43 65 c306 467 347 1066 107 1582 -149 317
-433 605 -754 762 -275 135 -594 191 -890 157z m378 -484 c449 -85 795 -417
903 -865 30 -127 33 -353 5 -480 -98 -455 -449 -799 -905 -887 -115 -22 -311
-21 -419 1 -232 48 -426 151 -585 310 -297 296 -408 721 -291 1124 53 181 137
323 277 469 167 172 348 272 587 323 109 24 317 26 428 5z"/>
<path d="M3055 4351 c-90 -37 -80 -174 14 -202 119 -35 193 127 87 192 -33 20
-68 23 -101 10z"/>
<path d="M2765 4116 c-22 -24 -62 -82 -88 -128 -122 -215 -156 -489 -87 -712
17 -53 27 -69 51 -81 40 -21 114 -11 146 21 28 28 29 63 6 148 -23 83 -23 259
0 346 22 82 74 189 126 259 53 71 54 101 2 152 -31 32 -46 39 -77 39 -32 0
-44 -7 -79 -44z"/>
<path d="M1198 4112 c-571 -570 -578 -578 -578 -617 0 -40 7 -47 578 -618 515
-514 580 -577 608 -577 41 0 84 40 84 78 0 17 -21 63 -51 113 -368 610 -372
1372 -12 1977 32 53 62 106 66 116 10 26 -9 71 -39 91 -59 38 -39 55 -656
-563z"/>
<path d="M5091 4664 c-43 -36 -41 -70 13 -158 126 -208 218 -448 262 -691 15
-79 19 -149 18 -335 0 -217 -2 -245 -27 -363 -49 -229 -139 -459 -250 -637
-56 -89 -59 -118 -16 -154 62 -53 33 -77 662 552 569 569 577 578 577 617 0
39 -8 48 -578 617 -628 628 -599 605 -661 552z"/>
<path d="M2309 1881 c-60 -60 -85 -30 549 -663 570 -570 578 -578 617 -578 39
0 47 8 617 578 634 633 609 603 549 663 -16 16 -39 29 -51 29 -11 0 -62 -25
-113 -56 -613 -370 -1384 -370 -1996 -1 -52 31 -105 57 -118 57 -14 0 -38 -13
-54 -29z"/>
</g>
</svg>
